<svg width="18" height="24" viewBox="0 0 18 24" fill="none" xmlns="http://www.w3.org/2000/svg">
<g clip-path="url(#clip0_532_1611)">
<path d="M17.4361 8.48644C15.9614 9.39728 15.0506 10.9587 15.0506 12.6937C15.0506 14.6455 16.2217 16.4238 18 17.1611C17.653 18.2889 17.1325 19.3298 16.4819 20.284C15.5277 21.6286 14.5301 23.0166 13.0554 23.0166C11.5807 23.0166 11.147 22.1491 9.41205 22.1491C7.72048 22.1491 7.11325 23.0599 5.7253 23.0599C4.33735 23.0599 3.38313 21.8021 2.2988 20.2407C0.86747 18.072 0.0433735 15.5563 0 12.9105C0 8.61656 2.7759 6.31777 5.55181 6.31777C7.02651 6.31777 8.24096 7.27198 9.15181 7.27198C10.0193 7.27198 11.4072 6.27439 13.0554 6.27439C14.7904 6.23102 16.4386 7.05512 17.4361 8.48644ZM12.2747 4.45271C13.012 3.58524 13.4024 2.5009 13.4458 1.37319C13.4458 1.24307 13.4458 1.06957 13.4024 0.939453C12.1446 1.06957 10.9735 1.6768 10.1494 2.63102C9.41205 3.45512 8.97831 4.49608 8.93494 5.62379C8.93494 5.75391 8.93494 5.88403 8.97831 6.01415C9.06506 6.01415 9.19518 6.05753 9.28193 6.05753C10.453 5.97078 11.5373 5.36355 12.2747 4.45271Z" fill="white"/>
</g>
<defs>
<clipPath id="clip0_532_1611">
<rect width="18" height="22.1205" fill="white" transform="translate(0 0.939453)"/>
</clipPath>
</defs>
</svg>
