<svg width="30" height="30" viewBox="0 0 30 30" fill="none" xmlns="http://www.w3.org/2000/svg">
<g clip-path="url(#clip0_44_1412)">
<path d="M14.9996 29.2106C22.8478 29.2106 29.2101 22.8483 29.2101 15.0001C29.2101 7.15182 22.8478 0.789551 14.9996 0.789551C7.15133 0.789551 0.789062 7.15182 0.789062 15.0001C0.789062 22.8483 7.15133 29.2106 14.9996 29.2106Z" fill="#FFB91D"/>
<path d="M18.6091 19.8815C15.7853 22.0273 13.989 21.9524 10.7642 21.7672C9.62189 21.7016 9.58992 22.8719 10.6828 23.1855C13.6898 24.0481 17.5925 23.4111 19.9474 20.9125C20.5447 20.2788 19.4108 19.2724 18.6091 19.8815Z" fill="#414042"/>
<path d="M9.06299 14.7028C10.0573 14.7028 10.8633 13.4937 10.8633 12.0023C10.8633 10.5108 10.0573 9.30176 9.06299 9.30176C8.06872 9.30176 7.2627 10.5108 7.2627 12.0023C7.2627 13.4937 8.06872 14.7028 9.06299 14.7028Z" fill="#414042"/>
<path d="M16.5445 13.4551C16.1744 13.2134 15.8387 12.6668 16.3724 11.5708C16.4366 11.4489 16.5161 11.3356 16.6088 11.2337C17.1574 10.6065 20.0586 8.60813 22.3784 12.3868C22.4379 12.4885 22.4915 12.5935 22.5388 12.7014C22.7393 13.1406 22.9723 14.3181 22.2103 13.6704C22.2103 13.6704 19.7068 10.9345 17.5886 13.2803C17.3112 13.5872 16.8824 13.6758 16.5445 13.4551Z" fill="#414042"/>
</g>
<defs>
<clipPath id="clip0_44_1412">
<rect width="28.4211" height="28.4211" fill="white" transform="translate(0.789062 0.789551)"/>
</clipPath>
</defs>
</svg>
