<svg width="29" height="29" viewBox="0 0 29 29" fill="none" xmlns="http://www.w3.org/2000/svg">
<path d="M10.9852 1.73828V4.0538H17.9318V1.73828H20.2473V4.0538H24.8783C25.5177 4.0538 26.0361 4.57216 26.0361 5.21156V23.7357C26.0361 24.3752 25.5177 24.8935 24.8783 24.8935H4.03862C3.39921 24.8935 2.88086 24.3752 2.88086 23.7357V5.21156C2.88086 4.57216 3.39921 4.0538 4.03862 4.0538H8.66966V1.73828H10.9852ZM23.7206 13.3159H5.19638V22.578H23.7206V13.3159ZM9.82742 15.6314V17.9469H7.5119V15.6314H9.82742ZM15.6162 15.6314V17.9469H13.3007V15.6314H15.6162ZM21.405 15.6314V17.9469H19.0895V15.6314H21.405ZM8.66966 6.36932H5.19638V11.0004H23.7206V6.36932H20.2473V8.68485H17.9318V6.36932H10.9852V8.68485H8.66966V6.36932Z" fill="#0E121B"/>
</svg>
