<svg width="29" height="29" viewBox="0 0 29 29" fill="none" xmlns="http://www.w3.org/2000/svg">
<path d="M8.71613 9.98736C8.71613 9.26802 9.29927 8.68488 10.0186 8.68488C10.738 8.68488 11.3211 9.26802 11.3211 9.98736C11.3211 10.7067 10.738 11.2898 10.0186 11.2898C9.29927 11.2898 8.71613 10.7067 8.71613 9.98736ZM10.0186 6.94824C8.34015 6.94824 6.97949 8.3089 6.97949 9.98736C6.97949 11.6658 8.34015 13.0265 10.0186 13.0265C11.6971 13.0265 13.0577 11.6658 13.0577 9.98736C13.0577 8.3089 11.6971 6.94824 10.0186 6.94824ZM14.7944 10.8557H21.7409V9.11904H14.7944V10.8557ZM18.2677 18.6706C18.2677 17.9513 18.8508 17.3681 19.5701 17.3681C20.2895 17.3681 20.8726 17.9513 20.8726 18.6706C20.8726 19.3899 20.2895 19.9731 19.5701 19.9731C18.8508 19.9731 18.2677 19.3899 18.2677 18.6706ZM19.5701 15.6314C17.8917 15.6314 16.531 16.9921 16.531 18.6706C16.531 20.349 17.8917 21.7097 19.5701 21.7097C21.2486 21.7097 22.6093 20.349 22.6093 18.6706C22.6093 16.9921 21.2486 15.6314 19.5701 15.6314ZM7.84781 17.8022V19.5389H14.7944V17.8022H7.84781Z" fill="#49ADBE"/>
</svg>
