<svg width="29" height="29" viewBox="0 0 29 29" fill="none" xmlns="http://www.w3.org/2000/svg">
<path d="M10.9852 1.73779V4.05331H17.9318V1.73779H20.2473V4.05331H24.8783C25.5177 4.05331 26.0361 4.57167 26.0361 5.21108V23.7352C26.0361 24.3747 25.5177 24.893 24.8783 24.893H4.03862C3.39921 24.893 2.88086 24.3747 2.88086 23.7352V5.21108C2.88086 4.57167 3.39921 4.05331 4.03862 4.05331H8.66966V1.73779H10.9852ZM23.7206 13.3154H5.19638V22.5775H23.7206V13.3154ZM9.82742 15.6309V17.9464H7.5119V15.6309H9.82742ZM15.6162 15.6309V17.9464H13.3007V15.6309H15.6162ZM21.405 15.6309V17.9464H19.0895V15.6309H21.405ZM8.66966 6.36884H5.19638V10.9999H23.7206V6.36884H20.2473V8.68436H17.9318V6.36884H10.9852V8.68436H8.66966V6.36884Z" fill="#0E121B"/>
</svg>
