<svg width="30" height="30" viewBox="0 0 30 30" fill="none" xmlns="http://www.w3.org/2000/svg">
<g clip-path="url(#clip0_44_1406)">
<path fill-rule="evenodd" clip-rule="evenodd" d="M25.4091 19.1584C25.1755 24.7377 20.5803 29.1897 14.9436 29.1897C9.15739 29.1897 4.4668 24.3414 4.4668 18.7129C4.4668 17.9606 4.45332 16.457 5.58136 13.9203C6.25644 12.4022 6.67986 11.4485 6.91882 10.5767C7.05011 10.0975 7.30545 9.33628 8.03337 10.5767C8.46258 11.308 8.47919 12.3599 8.47919 12.3599C8.47919 12.3599 10.0761 11.1345 11.1541 8.79338C12.7344 5.36135 11.4735 3.30979 11.0427 1.88317C10.8935 1.38964 10.7999 0.502685 11.8228 0.880072C12.8652 1.2647 15.6208 3.19366 17.0612 5.22682C19.117 8.12855 19.8476 10.911 19.8476 10.911C19.8476 10.911 20.5059 10.0941 20.7392 9.2392C21.0028 8.27389 21.0067 7.31783 21.8537 8.34768C22.6592 9.32703 23.8554 11.1675 24.5287 12.9172C25.7513 16.0947 25.4091 19.1584 25.4091 19.1584Z" fill="url(#paint0_linear_44_1406)"/>
<path fill-rule="evenodd" clip-rule="evenodd" d="M14.9438 29.1894C10.9427 29.1894 7.69922 25.9459 7.69922 21.9448C7.69922 19.5306 8.67211 18.0648 10.6969 16.0771C11.9934 14.8044 13.2068 13.2413 13.7225 12.1769C13.824 11.9673 14.0551 10.8754 14.9459 12.1539C15.4132 12.8244 16.1458 14.0169 16.6156 15.0346C17.4255 16.7892 17.6187 18.4897 17.6187 18.4897C17.6187 18.4897 18.4124 18.022 18.9562 16.8179C19.1315 16.4298 19.4859 14.9606 20.4768 16.4296C21.2038 17.5076 22.2025 19.4458 22.1884 21.9448C22.1884 25.9459 18.9448 29.1894 14.9438 29.1894Z" fill="#FC9502"/>
<path fill-rule="evenodd" clip-rule="evenodd" d="M15.0551 21.2764C16.086 21.2764 16.086 23.1855 17.3956 25.7346C18.2676 27.4319 16.9633 29.1897 15.0551 29.1897C13.1468 29.1897 12.1572 27.6428 12.1572 25.7346C12.1572 23.8265 14.0241 21.2764 15.0551 21.2764Z" fill="#FCE202"/>
</g>
<defs>
<linearGradient id="paint0_linear_44_1406" x1="14.9593" y1="29.2106" x2="14.9593" y2="0.810524" gradientUnits="userSpaceOnUse">
<stop stop-color="#FF4C0D"/>
<stop offset="1" stop-color="#FC9502"/>
</linearGradient>
<clipPath id="clip0_44_1406">
<rect width="28.4211" height="28.4211" fill="white" transform="translate(0.789062 0.789551)"/>
</clipPath>
</defs>
</svg>
