<svg width="29" height="28" viewBox="0 0 29 28" fill="none" xmlns="http://www.w3.org/2000/svg">
<path d="M19.7507 3.5C23.2945 3.5 26.1673 6.41667 26.1673 10.5C26.1673 18.6667 17.4173 23.3333 14.5007 25.0833C11.584 23.3333 2.83398 18.6667 2.83398 10.5C2.83398 6.41667 5.75065 3.5 9.25065 3.5C11.4206 3.5 13.334 4.66667 14.5007 5.83333C15.6673 4.66667 17.5807 3.5 19.7507 3.5ZM15.5902 21.7044C16.6187 21.0566 17.5457 20.4114 18.4147 19.7201C21.89 16.9552 23.834 13.9341 23.834 10.5C23.834 7.74755 22.0408 5.83333 19.7507 5.83333C18.4954 5.83333 17.1365 6.49729 16.1506 7.48324L14.5007 9.13317L12.8508 7.48324C11.8648 6.49729 10.5059 5.83333 9.25065 5.83333C6.98622 5.83333 5.16732 7.76592 5.16732 10.5C5.16732 13.9341 7.1113 16.9552 10.5866 19.7201C11.4557 20.4114 12.3826 21.0566 13.4111 21.7044C13.7594 21.9239 14.1053 22.135 14.5007 22.3711C14.896 22.135 15.242 21.9239 15.5902 21.7044Z" fill="white"/>
</svg>
