<svg width="29" height="28" viewBox="0 0 29 28" fill="none" xmlns="http://www.w3.org/2000/svg">
<path d="M6.10059 24.5C6.10059 22.2721 6.98558 20.1356 8.56089 18.5603C10.1362 16.9849 12.2728 16.1 14.5006 16.1C16.7284 16.1 18.865 16.9849 20.4403 18.5603C22.0156 20.1356 22.9006 22.2721 22.9006 24.5H20.8006C20.8006 22.8291 20.1368 21.2267 18.9554 20.0452C17.7739 18.8637 16.1715 18.2 14.5006 18.2C12.8297 18.2 11.2273 18.8637 10.0458 20.0452C8.86433 21.2267 8.20059 22.8291 8.20059 24.5H6.10059ZM14.5006 15.05C11.0198 15.05 8.20059 12.2307 8.20059 8.74995C8.20059 5.2692 11.0198 2.44995 14.5006 2.44995C17.9813 2.44995 20.8006 5.2692 20.8006 8.74995C20.8006 12.2307 17.9813 15.05 14.5006 15.05ZM14.5006 12.95C16.8211 12.95 18.7006 11.0705 18.7006 8.74995C18.7006 6.42945 16.8211 4.54995 14.5006 4.54995C12.1801 4.54995 10.3006 6.42945 10.3006 8.74995C10.3006 11.0705 12.1801 12.95 14.5006 12.95Z" fill="white"/>
</svg>
