<svg width="29" height="28" viewBox="0 0 29 28" fill="none" xmlns="http://www.w3.org/2000/svg">
<path d="M11.0007 1.1665V3.49984H18.0007V1.1665H20.334V3.49984H25.0007C25.645 3.49984 26.1673 4.02218 26.1673 4.6665V23.3332C26.1673 23.9775 25.645 24.4998 25.0007 24.4998H4.00065C3.35632 24.4998 2.83398 23.9775 2.83398 23.3332V4.6665C2.83398 4.02218 3.35632 3.49984 4.00065 3.49984H8.66732V1.1665H11.0007ZM23.834 12.8332H5.16732V22.1665H23.834V12.8332ZM9.83398 15.1665V17.4998H7.50065V15.1665H9.83398ZM15.6673 15.1665V17.4998H13.334V15.1665H15.6673ZM21.5007 15.1665V17.4998H19.1673V15.1665H21.5007ZM8.66732 5.83317H5.16732V10.4998H23.834V5.83317H20.334V8.1665H18.0007V5.83317H11.0007V8.1665H8.66732V5.83317Z" fill="white"/>
</svg>
