<svg width="29" height="29" viewBox="0 0 29 29" fill="none" xmlns="http://www.w3.org/2000/svg">
<path d="M23.7508 22.8092C23.7508 23.0856 23.6411 23.3506 23.4457 23.546C23.2502 23.7414 22.9852 23.8512 22.7089 23.8512H6.0371C5.76075 23.8512 5.49572 23.7414 5.30031 23.546C5.1049 23.3506 4.99512 23.0856 4.99512 22.8092V11.858C4.99501 11.6992 5.03119 11.5425 5.1009 11.3998C5.1706 11.2571 5.27199 11.1323 5.39732 11.0348L13.7332 4.55157C13.9161 4.40928 14.1412 4.33203 14.373 4.33203C14.6047 4.33203 14.8298 4.40928 15.0128 4.55157L23.3486 11.0348C23.474 11.1323 23.5754 11.2571 23.6451 11.3998C23.7148 11.5425 23.751 11.6992 23.7508 11.858V22.8092V22.8092ZM21.6669 21.7672V12.3665L14.373 6.69389L7.07909 12.3665V21.7672H21.6669ZM9.16306 17.5993H19.5829V19.6833H9.16306V17.5993Z" fill="white"/>
</svg>
