<svg width="28" height="29" viewBox="0 0 28 29" fill="none" xmlns="http://www.w3.org/2000/svg">
<path d="M19.1264 4.05371C22.6432 4.05371 25.4941 6.94811 25.4941 11.0003C25.4941 19.1046 16.8109 23.7356 13.9165 25.4723C11.0221 23.7356 2.33887 19.1046 2.33887 11.0003C2.33887 6.94811 5.23327 4.05371 8.70655 4.05371C10.86 4.05371 12.7587 5.21147 13.9165 6.36923C15.0742 5.21147 16.973 4.05371 19.1264 4.05371ZM14.9977 22.1192C16.0184 21.4763 16.9382 20.836 17.8006 20.1499C21.2494 17.4062 23.1786 14.4081 23.1786 11.0003C23.1786 8.26884 21.3991 6.36923 19.1264 6.36923C17.8808 6.36923 16.5322 7.02813 15.5538 8.00655L13.9165 9.64388L12.2792 8.00655C11.3007 7.02813 9.95219 6.36923 8.70655 6.36923C6.45941 6.36923 4.65439 8.28706 4.65439 11.0003C4.65439 14.4081 6.58353 17.4062 10.0323 20.1499C10.8947 20.836 11.8146 21.4763 12.8352 22.1192C13.1808 22.337 13.5241 22.5465 13.9165 22.7807C14.3088 22.5465 14.6521 22.337 14.9977 22.1192Z" fill="#0E121B"/>
</svg>
