<svg width="71" height="69" viewBox="0 0 71 69" fill="none" xmlns="http://www.w3.org/2000/svg">
<path d="M23.9434 2.6748L23.9756 2.67578C26.0231 2.73808 28.0141 3.08252 29.9473 3.7041H30.2773L30.7012 3.90527C30.8177 3.96063 30.9323 4.02665 31.0459 4.09766C31.6717 4.31018 32.3182 4.5641 32.9619 4.90918L34.0898 5.41504L34.1562 5.44434L34.2197 5.47754C34.5898 5.67494 34.9484 5.92894 35.1855 6.09961C35.3108 6.18974 35.3773 6.2389 35.459 6.29785C39.0338 3.92577 43.2204 2.64827 47.5303 2.67578V2.6748L47.5312 2.67578C47.5358 2.67581 47.5404 2.67477 47.5449 2.6748L47.5439 2.67578C49.7021 2.67705 51.8899 2.9811 53.9951 3.6875L53.9941 3.68848C66.8947 7.89424 71.2154 21.9242 67.5176 33.707L67.5078 33.7383L67.4971 33.7686C65.4298 39.7047 62.0488 45.126 57.6152 49.5596L57.5918 49.583C51.4625 55.5186 44.7366 60.7876 37.4971 65.3262L37.4678 65.3438L36.6875 65.8154L35.5986 66.4727L34.5166 65.8037L33.7061 65.3008L33.7041 65.2998C26.4366 60.7913 19.6713 55.5217 13.4854 49.5547L13.4541 49.5234C9.05536 45.0951 5.67313 39.711 3.57422 33.7783L3.56348 33.748L3.55371 33.7168C-0.214782 21.9108 4.1265 7.88032 17.1533 3.61719V3.61816C18.1814 3.26598 19.2409 3.01831 20.3057 2.87988L20.4395 2.8623H20.8174C21.7404 2.73577 22.655 2.67482 23.5684 2.6748H23.9434ZM51.0195 16.5771C50.8602 16.5314 50.629 16.6023 50.5283 16.8525C50.4591 17.0952 50.5928 17.3447 50.8154 17.4238L50.832 17.4307L50.8496 17.4365C53.6881 18.4994 55.5381 21.2634 55.5381 24.2832V24.4658L55.5312 24.5518C55.5157 24.7392 55.573 24.89 55.6572 24.9922C55.6854 25.0262 55.7571 25.083 55.8799 25.1191C55.9438 25.0992 56.01 25.0645 56.0693 25.0078C56.153 24.9278 56.2009 24.8287 56.2148 24.7246V24.4287C56.2895 20.9401 54.1848 17.8013 51.0195 16.5771Z" fill="#49ADBE" stroke="white" stroke-width="4.16"/>
</svg>
