<svg width="30" height="30" viewBox="0 0 30 30" fill="none" xmlns="http://www.w3.org/2000/svg">
<g clip-path="url(#clip0_44_1422)">
<path d="M28.6039 21.9931L28.0996 21.3148C27.8734 21.0105 27.7916 20.6215 27.8808 20.2529C28.0863 19.4031 28.3402 17.7288 27.5755 16.2244C27.4079 15.8946 27.2843 15.5429 27.2231 15.1779C26.7974 12.636 28.0799 9.21063 28.1045 9.13286C28.5538 7.71264 28.7322 7.14594 27.6465 6.62371C26.4649 6.05528 25.4151 6.71186 24.8021 7.82588C24.7189 7.97709 23.4853 10.2657 23.2027 13.2395C21.3759 10.7827 17.0318 4.93993 15.5879 2.99797C15.0488 2.27284 14.0404 2.04947 13.2697 2.52119C12.3858 3.06225 12.1738 4.22973 12.7781 5.04251C12.7737 5.03662 11.8641 3.81319 11.8901 3.84821C11.3243 3.08717 10.2484 2.88628 9.47308 3.43228C8.67118 3.99703 8.49666 5.10779 9.07829 5.89003C10.115 7.28438 9.87669 6.96382 9.98965 7.11575C9.39181 6.31169 8.23132 6.17269 7.4584 6.83864C6.76436 7.43665 6.67588 8.48251 7.22254 9.21774L8.90593 11.4819C8.30171 10.6692 7.12262 10.5359 6.34993 11.2265C5.6762 11.8285 5.59976 12.8585 6.13888 13.5836C6.41582 13.9561 13.9984 24.1544 14.4197 24.7211C15.287 25.8875 16.4719 26.6783 17.7656 27.0625C18.983 27.4242 19.4796 28.385 19.6218 28.5354L19.6803 28.6142C20.1674 29.2692 21.0933 29.4055 21.7484 28.9184L28.302 24.0458C28.9522 23.5623 29.0873 22.6433 28.6039 21.9931Z" fill="#F4D44E"/>
<path d="M22.6732 5.51426C21.9574 4.00639 20.9459 2.64584 19.7075 1.52543C19.5344 1.36889 19.521 1.10167 19.6776 0.928642C19.8341 0.755562 20.1013 0.742184 20.2744 0.898777C21.5942 2.09263 22.6728 3.54305 23.4367 5.15183C23.5367 5.36266 23.4469 5.61467 23.2362 5.71481C23.0263 5.8144 22.7737 5.72597 22.6732 5.51426Z" fill="#EAE9E8"/>
<path d="M20.305 6.17478C19.806 5.22561 19.1596 4.35583 18.3931 3.6035C18.2266 3.43997 18.2241 3.17253 18.3876 3.00594C18.5511 2.83936 18.8186 2.83697 18.9851 3.00039C19.8128 3.81289 20.5125 4.75334 21.053 5.7816C21.1615 5.9881 21.0821 6.24361 20.8755 6.35219C20.6685 6.46099 20.4133 6.38094 20.305 6.17478Z" fill="#EAE9E8"/>
<path d="M4.30768 19.3745C2.98771 18.1804 1.90938 16.7305 1.14545 15.1215C1.04531 14.9107 1.13513 14.6586 1.3459 14.5585C1.55667 14.4584 1.80874 14.5482 1.90882 14.759C2.62479 16.267 3.6359 17.6273 4.87455 18.7478C5.04763 18.9043 5.061 19.1715 4.90441 19.3446C4.74843 19.5172 4.4812 19.5316 4.30768 19.3745Z" fill="#EAE9E8"/>
<path d="M5.59796 17.273C4.76998 16.4602 4.07061 15.5199 3.53005 14.4918C3.42148 14.2852 3.50091 14.0298 3.70746 13.9211C3.91401 13.8126 4.16947 13.892 4.2781 14.0985C4.77725 15.048 5.42355 15.9176 6.18992 16.6698C6.35645 16.8333 6.35895 17.1008 6.19547 17.2674C6.03227 17.4338 5.7646 17.4366 5.59796 17.273Z" fill="#EAE9E8"/>
<path d="M9.1536 5.9911C9.79341 6.85156 14.8621 13.6688 14.6907 13.4382C14.9701 13.814 15.5095 13.8739 15.8645 13.5688C16.1874 13.2913 16.2407 12.8114 15.9867 12.4698L11.4713 6.39676C11.4693 6.39421 11.4675 6.39177 11.4659 6.38955L11.4598 6.38122C11.4573 6.37795 11.4552 6.375 11.4533 6.37245L11.4486 6.36623L11.4485 6.36612L10.5744 5.19053C10.1083 4.56366 10.1282 3.72596 10.5671 3.12723C9.18169 3.03725 8.12439 4.60629 9.1536 5.9911Z" fill="#E8C842"/>
<path d="M12.1872 15.8957C12.487 16.2989 13.0717 16.3491 13.4359 16.003C13.7192 15.7337 13.7568 15.2953 13.5236 14.9817C12.9327 14.1869 9.16843 9.12415 8.71797 8.51832C8.24869 7.88722 8.24791 7.02743 8.69599 6.41827C7.2192 6.33145 6.32738 8.01456 7.22203 9.21785C9.46707 12.2371 9.85109 12.7538 12.1872 15.8957Z" fill="#E8C842"/>
<path d="M21.1768 27.9144L21.1183 27.8357C20.976 27.6853 20.4794 26.7245 19.2621 26.3628C17.9683 25.9785 16.7834 25.1878 15.9161 24.0214C15.4948 23.4547 7.91218 13.2563 7.6353 12.8839C7.16685 12.2538 7.16346 11.3937 7.61259 10.7839C6.14019 10.698 5.24032 12.3742 6.13936 13.5835C6.4163 13.9559 13.9989 24.1542 14.4202 24.721C15.2875 25.8873 16.4724 26.678 17.7661 27.0624C18.9835 27.424 19.4801 28.3848 19.6223 28.5353L19.6809 28.614C20.1679 29.2691 21.0938 29.4053 21.749 28.9182L22.2992 28.5091C21.8702 28.4903 21.453 28.2859 21.1768 27.9144Z" fill="#E8C842"/>
<path d="M14.2746 4.34323C13.8078 3.71542 13.8285 2.87611 14.2694 2.27721C13.9645 2.25706 13.6539 2.31724 13.3699 2.46584L13.3698 2.46561C13.2224 2.54272 13.0889 2.63941 12.9747 2.7481C12.9745 2.74827 12.9743 2.74844 12.9741 2.74866H12.9741C12.3695 3.32363 12.2568 4.25908 12.7233 4.96389L12.7787 5.04283L17.7794 11.7685C18.0713 12.1612 18.6413 12.2097 18.9954 11.8718C19.3221 11.5601 19.3628 11.0528 19.0899 10.693L14.2746 4.34323ZM13.795 3.6981L13.7686 3.66268C13.7774 3.6744 13.7861 3.68628 13.795 3.6981Z" fill="#E8C842"/>
<path d="M24.8026 7.82584C24.7506 7.9202 24.2509 8.84788 23.8137 10.2544L23.8132 10.2541C23.55 11.1011 23.3093 12.1219 23.2031 13.2395C23.6666 13.8555 24.6466 13.5558 24.6863 12.786L24.699 12.54C24.9817 9.56601 26.2153 7.27751 26.2985 7.1263C26.4452 6.85957 26.6173 6.61944 26.81 6.41572C25.9792 6.40345 25.266 6.98375 24.8026 7.82584Z" fill="#E8C842"/>
</g>
<defs>
<clipPath id="clip0_44_1422">
<rect width="28.4211" height="28.4211" fill="white" transform="translate(0.789062 0.789551)"/>
</clipPath>
</defs>
</svg>
