<svg width="29" height="29" viewBox="0 0 29 29" fill="none" xmlns="http://www.w3.org/2000/svg">
<path d="M23.7508 22.8083C23.7508 23.0846 23.6411 23.3496 23.4457 23.545C23.2502 23.7405 22.9852 23.8502 22.7089 23.8502H6.0371C5.76075 23.8502 5.49572 23.7405 5.30031 23.545C5.1049 23.3496 4.99512 23.0846 4.99512 22.8083V11.857C4.99501 11.6982 5.03119 11.5415 5.1009 11.3988C5.1706 11.2562 5.27199 11.1313 5.39732 11.0338L13.7332 4.55059C13.9161 4.40831 14.1412 4.33105 14.373 4.33105C14.6047 4.33105 14.8298 4.40831 15.0128 4.55059L23.3486 11.0338C23.474 11.1313 23.5754 11.2562 23.6451 11.3988C23.7148 11.5415 23.751 11.6982 23.7508 11.857V22.8083V22.8083ZM21.6669 21.7663V12.3655L14.373 6.69292L7.07909 12.3655V21.7663H21.6669ZM9.16306 17.5983H19.5829V19.6823H9.16306V17.5983Z" fill="white"/>
</svg>
