<svg width="29" height="28" viewBox="0 0 29 28" fill="none" xmlns="http://www.w3.org/2000/svg">
<path d="M23.9498 22.4001C23.9498 22.6786 23.8392 22.9456 23.6423 23.1426C23.4454 23.3395 23.1783 23.4501 22.8998 23.4501H6.0998C5.82133 23.4501 5.55426 23.3395 5.35734 23.1426C5.16043 22.9456 5.0498 22.6786 5.0498 22.4001V11.3646C5.04969 11.2046 5.08615 11.0467 5.1564 10.9029C5.22664 10.7591 5.32881 10.6333 5.4551 10.5351L13.8551 4.00199C14.0394 3.85861 14.2663 3.78076 14.4998 3.78076C14.7333 3.78076 14.9602 3.85861 15.1445 4.00199L23.5445 10.5351C23.6708 10.6333 23.773 10.7591 23.8432 10.9029C23.9135 11.0467 23.9499 11.2046 23.9498 11.3646V22.4001ZM21.8498 21.3501V11.877L14.4998 6.16079L7.1498 11.877V21.3501H21.8498ZM9.2498 17.1501H19.7498V19.2501H9.2498V17.1501Z" fill="#0E121B"/>
</svg>
