<svg width="30" height="30" viewBox="0 0 30 30" fill="none" xmlns="http://www.w3.org/2000/svg">
<g clip-path="url(#clip0_252_1439)">
<path d="M27.5699 6.14731C26.5523 4.7947 25.1148 3.8274 23.4884 3.40079C21.862 2.97419 20.141 3.11306 18.602 3.79508C17.2245 4.39646 15.996 5.41039 14.9996 6.75593C14.0032 5.4071 12.7747 4.39317 11.3972 3.79508C9.85818 3.11306 8.13722 2.97419 6.5108 3.40079C4.88438 3.8274 3.4469 4.7947 2.42929 6.14731C1.35618 7.56984 0.789062 9.34766 0.789062 11.288C0.789062 14.0804 2.43514 17.1439 5.68113 20.3969C8.32617 23.0465 11.4518 25.2165 13.0791 26.2739C13.6524 26.6451 14.3189 26.8424 14.9996 26.8424C15.6803 26.8424 16.3468 26.6451 16.9201 26.2739C18.546 25.2165 21.673 23.0465 24.3181 20.3969C27.564 17.1452 29.2101 14.0804 29.2101 11.288C29.2101 9.34766 28.643 7.56984 27.5699 6.14731Z" fill="url(#paint0_linear_252_1439)"/>
</g>
<defs>
<linearGradient id="paint0_linear_252_1439" x1="14.9996" y1="3.1582" x2="14.9996" y2="26.8424" gradientUnits="userSpaceOnUse">
<stop stop-color="#49ADBE"/>
<stop offset="1" stop-color="#96D0D9"/>
</linearGradient>
<clipPath id="clip0_252_1439">
<rect width="28.4211" height="28.4211" fill="white" transform="translate(0.789062 0.789551)"/>
</clipPath>
</defs>
</svg>
