<svg width="29" height="29" viewBox="0 0 29 29" fill="none" xmlns="http://www.w3.org/2000/svg">
<path d="M10.3147 8.54022C10.3147 7.2614 9.27804 6.2247 7.99921 6.2247C6.72038 6.2247 5.68369 7.2614 5.68369 8.54022C5.68369 9.81905 6.72038 10.8557 7.99921 10.8557C9.27804 10.8557 10.3147 9.81905 10.3147 8.54022ZM12.6303 8.54022C12.6303 11.0979 10.5569 13.1713 7.99921 13.1713C5.44155 13.1713 3.36816 11.0979 3.36816 8.54022C3.36816 5.98257 5.44155 3.90918 7.99921 3.90918C10.5569 3.90918 12.6303 5.98257 12.6303 8.54022ZM24.7867 5.06694H15.5247V7.38246H24.7867V5.06694ZM24.7867 13.1713H15.5247V15.4868H24.7867V13.1713ZM24.7867 21.2756H15.5247V23.5911H24.7867V21.2756ZM7.99921 22.4334C6.72038 22.4334 5.68369 21.3967 5.68369 20.1178C5.68369 18.839 6.72038 17.8023 7.99921 17.8023C9.27804 17.8023 10.3147 18.839 10.3147 20.1178C10.3147 21.3967 9.27804 22.4334 7.99921 22.4334ZM7.99921 24.7489C10.5569 24.7489 12.6303 22.6754 12.6303 20.1178C12.6303 17.5602 10.5569 15.4868 7.99921 15.4868C5.44155 15.4868 3.36816 17.5602 3.36816 20.1178C3.36816 22.6754 5.44155 24.7489 7.99921 24.7489ZM7.99921 9.69798C8.63862 9.69798 9.15697 9.17963 9.15697 8.54022C9.15697 7.90082 8.63862 7.38246 7.99921 7.38246C7.3598 7.38246 6.84145 7.90082 6.84145 8.54022C6.84145 9.17963 7.3598 9.69798 7.99921 9.69798Z" fill="#49ADBE"/>
</svg>
