<svg width="52" height="52" viewBox="0 0 52 52" fill="none" xmlns="http://www.w3.org/2000/svg">
<path d="M38.4376 25.3462C36.5457 24.8392 34.6079 25.307 33.1763 26.4307C32.4983 24.7417 31.054 23.3678 29.1621 22.8608C25.9643 22.004 22.6693 23.9205 21.8079 27.1351C21.476 28.374 21.3673 29.5831 21.4196 30.7276C21.6651 36.3742 25.916 40.8689 28.1986 42.3957C28.5188 42.6072 29.1048 42.7642 29.4878 42.7412C32.228 42.5602 38.1522 40.8099 41.1927 36.0258C41.8314 35.0485 42.3206 33.9593 42.6526 32.7204C43.5307 29.5103 41.6354 26.203 38.4376 25.3462Z" fill="#49ADBE"/>
<path d="M42.4071 23.593C42.3039 23.9781 41.8515 24.126 41.5101 23.9269C39.4068 22.7353 36.7988 22.5568 34.5647 23.3938C34.1246 23.563 33.6223 23.4284 33.3425 23.0663C32.28 21.7408 30.8163 20.7744 29.1253 20.3213C24.8057 19.1638 20.3431 21.7545 19.1767 26.1076C17.9116 30.829 19.2253 34.9673 20.8697 37.9382C20.9555 38.0868 20.8012 38.2608 20.6685 38.1534C16.5149 35.3716 8.06704 26.1813 11.0145 15.1814C12.3155 10.326 17.2663 7.45349 22.0882 8.74551C24.9512 9.51265 27.1115 11.563 28.1323 14.1155C30.3093 12.4198 33.2053 11.7243 36.0516 12.487C40.8568 13.7745 43.708 18.7376 42.4071 23.593Z" fill="#49ADBE"/>
</svg>
