<svg width="19" height="19" viewBox="0 0 19 19" fill="none" xmlns="http://www.w3.org/2000/svg">
<path d="M9.74738 15.2743L13.0631 11.9586C13.7188 11.3028 14.1654 10.4673 14.3462 9.55776C14.5271 8.64821 14.4342 7.70545 14.0793 6.84868C13.7244 5.99192 13.1234 5.25964 12.3524 4.74443C11.5813 4.22923 10.6747 3.95424 9.74738 3.95424C8.82002 3.95424 7.91348 4.22923 7.1424 4.74443C6.37132 5.25964 5.77032 5.99192 5.41542 6.84868C5.06051 7.70545 4.96762 8.64821 5.14851 9.55776C5.32939 10.4673 5.77592 11.3028 6.43163 11.9586L9.74738 15.2743ZM9.74738 17.1686L5.48447 12.9057C4.64136 12.0626 4.0672 10.9884 3.83459 9.81898C3.60198 8.64955 3.72137 7.43739 4.17766 6.33581C4.63396 5.23423 5.40666 4.29269 6.39806 3.63026C7.38946 2.96783 8.55503 2.61426 9.74738 2.61426C10.9397 2.61426 12.1053 2.96783 13.0967 3.63026C14.0881 4.29269 14.8608 5.23423 15.3171 6.33581C15.7734 7.43739 15.8928 8.64955 15.6602 9.81898C15.4276 10.9884 14.8534 12.0626 14.0103 12.9057L9.74738 17.1686ZM9.74738 9.98253C10.1027 9.98253 10.4434 9.84138 10.6947 9.59014C10.9459 9.3389 11.0871 8.99814 11.0871 8.64283C11.0871 8.28752 10.9459 7.94677 10.6947 7.69552C10.4434 7.44428 10.1027 7.30314 9.74738 7.30314C9.39207 7.30314 9.05131 7.44428 8.80007 7.69552C8.54883 7.94677 8.40768 8.28752 8.40768 8.64283C8.40768 8.99814 8.54883 9.3389 8.80007 9.59014C9.05131 9.84138 9.39207 9.98253 9.74738 9.98253ZM9.74738 11.3222C9.03676 11.3222 8.35525 11.0399 7.85276 10.5374C7.35028 10.035 7.06799 9.35345 7.06799 8.64283C7.06799 7.93221 7.35028 7.2507 7.85276 6.74822C8.35525 6.24573 9.03676 5.96344 9.74738 5.96344C10.458 5.96344 11.1395 6.24573 11.642 6.74822C12.1445 7.2507 12.4268 7.93221 12.4268 8.64283C12.4268 9.35345 12.1445 10.035 11.642 10.5374C11.1395 11.0399 10.458 11.3222 9.74738 11.3222Z" fill="#525866"/>
</svg>
