<svg width="28" height="29" viewBox="0 0 28 29" fill="none" xmlns="http://www.w3.org/2000/svg">
<path d="M19.1264 4.05322C22.6432 4.05322 25.4941 6.94762 25.4941 10.9998C25.4941 19.1041 16.8109 23.7352 13.9165 25.4718C11.0221 23.7352 2.33887 19.1041 2.33887 10.9998C2.33887 6.94762 5.23327 4.05322 8.70655 4.05322C10.86 4.05322 12.7587 5.21098 13.9165 6.36874C15.0742 5.21098 16.973 4.05322 19.1264 4.05322ZM14.9977 22.1187C16.0184 21.4758 16.9382 20.8355 17.8006 20.1495C21.2494 17.4057 23.1786 14.4077 23.1786 10.9998C23.1786 8.26835 21.3991 6.36874 19.1264 6.36874C17.8808 6.36874 16.5322 7.02764 15.5538 8.00606L13.9165 9.64339L12.2792 8.00606C11.3007 7.02764 9.95219 6.36874 8.70655 6.36874C6.45941 6.36874 4.65439 8.28657 4.65439 10.9998C4.65439 14.4077 6.58353 17.4057 10.0323 20.1495C10.8947 20.8355 11.8146 21.4758 12.8352 22.1187C13.1808 22.3365 13.5241 22.546 13.9165 22.7802C14.3088 22.546 14.6521 22.3365 14.9977 22.1187Z" fill="#0E121B"/>
</svg>
