<svg width="96" height="96" viewBox="0 0 96 96" fill="none" xmlns="http://www.w3.org/2000/svg">
<rect width="96" height="96" rx="24" fill="#49ADBE"/>
<path d="M64 44C64 56 48 68 48 68C48 68 32 56 32 44C32 39.7565 33.6857 35.6869 36.6863 32.6863C39.6869 29.6857 43.7565 28 48 28C52.2435 28 56.3131 29.6857 59.3137 32.6863C62.3143 35.6869 64 39.7565 64 44Z" stroke="white" stroke-width="4" stroke-linecap="round" stroke-linejoin="round"/>
<path d="M48 50C51.3137 50 54 47.3137 54 44C54 40.6863 51.3137 38 48 38C44.6863 38 42 40.6863 42 44C42 47.3137 44.6863 50 48 50Z" stroke="white" stroke-width="4" stroke-linecap="round" stroke-linejoin="round"/>
</svg>
