<svg width="20" height="20" viewBox="0 0 20 20" fill="none" xmlns="http://www.w3.org/2000/svg">
<path d="M10.0003 17.4502C11.2503 17.4502 12.292 18.3336 13.3337 18.3336C15.8337 18.3336 18.3337 11.6669 18.3337 8.15022C18.3053 7.07083 17.8513 6.04641 17.0709 5.30026C16.2904 4.55412 15.2466 4.14673 14.167 4.16689C12.317 4.16689 10.8337 5.36689 10.0003 5.83356C9.16699 5.36689 7.68366 4.16689 5.83366 4.16689C4.75345 4.14452 3.70841 4.55118 2.92743 5.29779C2.14646 6.0444 1.69322 7.0701 1.66699 8.15022C1.66699 11.6669 4.16699 18.3336 6.66699 18.3336C7.70866 18.3336 8.75033 17.4502 10.0003 17.4502Z" stroke="white" stroke-width="1.66667" stroke-linecap="round" stroke-linejoin="round"/>
<path d="M8.33301 1.66699C9.16634 2.08366 9.99967 3.33366 9.99967 5.83366" stroke="white" stroke-width="1.66667" stroke-linecap="round" stroke-linejoin="round"/>
</svg>
