<svg width="20" height="20" viewBox="0 0 20 20" fill="none" xmlns="http://www.w3.org/2000/svg">
<path d="M10.0003 18.3337C14.6027 18.3337 18.3337 14.6027 18.3337 10.0003C18.3337 5.39795 14.6027 1.66699 10.0003 1.66699C5.39795 1.66699 1.66699 5.39795 1.66699 10.0003C1.66699 14.6027 5.39795 18.3337 10.0003 18.3337Z" stroke="#4285F4" stroke-width="1.66667" stroke-linecap="round" stroke-linejoin="round"/>
<path d="M10.0003 13.3337C11.8413 13.3337 13.3337 11.8413 13.3337 10.0003C13.3337 8.15938 11.8413 6.66699 10.0003 6.66699C8.15938 6.66699 6.66699 8.15938 6.66699 10.0003C6.66699 11.8413 8.15938 13.3337 10.0003 13.3337Z" stroke="#4285F4" stroke-width="1.66667" stroke-linecap="round" stroke-linejoin="round"/>
<path d="M17.6417 6.66699H10" stroke="#4285F4" stroke-width="1.66667" stroke-linecap="round" stroke-linejoin="round"/>
<path d="M3.29199 5.0498L7.11699 11.6665" stroke="#4285F4" stroke-width="1.66667" stroke-linecap="round" stroke-linejoin="round"/>
<path d="M9.06641 18.2837L12.8831 11.667" stroke="#4285F4" stroke-width="1.66667" stroke-linecap="round" stroke-linejoin="round"/>
</svg>
