<svg width="15" height="15" viewBox="0 0 15 15" fill="none" xmlns="http://www.w3.org/2000/svg">
<path d="M12.1663 6.33366C12.1663 9.83366 7.49967 13.3337 7.49967 13.3337C7.49967 13.3337 2.83301 9.83366 2.83301 6.33366C2.83301 5.09598 3.32467 3.909 4.19984 3.03383C5.07501 2.15866 6.262 1.66699 7.49967 1.66699C8.73735 1.66699 9.92434 2.15866 10.7995 3.03383C11.6747 3.909 12.1663 5.09598 12.1663 6.33366Z" stroke="#AFAFAF" stroke-width="1.16667" stroke-linecap="round" stroke-linejoin="round"/>
<path d="M7.5 8.08301C8.4665 8.08301 9.25 7.29951 9.25 6.33301C9.25 5.36651 8.4665 4.58301 7.5 4.58301C6.5335 4.58301 5.75 5.36651 5.75 6.33301C5.75 7.29951 6.5335 8.08301 7.5 8.08301Z" stroke="#AFAFAF" stroke-width="1.16667" stroke-linecap="round" stroke-linejoin="round"/>
</svg>
