<svg width="29" height="30" viewBox="0 0 29 30" fill="none" xmlns="http://www.w3.org/2000/svg">
<g clip-path="url(#clip0_252_270)">
<path d="M19.8581 25.5349C19.8581 24.7788 16.7949 24.166 13.0159 24.166C9.23706 24.166 6.17383 24.7788 6.17383 25.5349C6.17383 26.291 9.23706 26.9038 13.0159 26.9038C16.7949 26.9038 19.8581 26.291 19.8581 25.5349Z" fill="url(#paint0_linear_252_270)"/>
<path d="M25.7423 23.9238C25.7423 22.6559 20.0443 21.6279 13.0156 21.6279C5.98707 21.6279 0.289062 22.6559 0.289062 23.9238C0.289062 25.1918 5.98707 26.2196 13.0156 26.2196C20.0443 26.2196 25.7423 25.1918 25.7423 23.9238Z" fill="url(#paint1_linear_252_270)"/>
<path d="M25.4876 23.7449C25.4876 22.5757 19.9039 21.6279 13.0157 21.6279C6.12768 21.6279 0.543945 22.5757 0.543945 23.7449C0.543945 24.9141 6.12768 25.8619 13.0157 25.8619C19.9039 25.8619 25.4876 24.9141 25.4876 23.7449Z" fill="url(#paint2_linear_252_270)"/>
<path d="M21.8673 23.6409C21.8673 22.8847 17.9046 22.272 13.016 22.272C8.12771 22.272 4.16504 22.8847 4.16504 23.6409C4.16504 24.397 8.12771 25.0097 13.016 25.0097C17.9046 25.0097 21.8673 24.397 21.8673 23.6409Z" fill="url(#paint3_linear_252_270)"/>
<path d="M6.80469 21.9087L11.7772 26.8814C12.1792 26.8962 12.5929 26.904 13.0159 26.904C16.1895 26.904 18.8581 26.4718 19.6316 25.8855C23.2959 25.4824 25.7427 24.7547 25.7427 23.9238C25.7427 23.6332 25.4426 23.3552 24.8964 23.0994C23.2879 22.2459 18.5773 21.6279 13.0159 21.6279C10.7543 21.6279 8.63348 21.7303 6.80469 21.9087Z" fill="url(#paint4_linear_252_270)"/>
<path d="M18.8426 26.2523L15.7514 23.1613C15.4023 22.7463 14.3101 22.4434 13.0158 22.4434C11.4402 22.4434 10.1631 22.8922 10.1631 23.4458C10.1631 23.5804 10.2392 23.7088 10.3762 23.8261L13.4507 26.9006C15.7319 26.872 17.7092 26.62 18.8426 26.2523Z" fill="url(#paint5_linear_252_270)"/>
<path d="M15.8687 23.4458C15.8687 22.8922 14.5915 22.4434 13.0158 22.4434C11.4402 22.4434 10.1631 22.8922 10.1631 23.4458C10.1631 23.9996 11.4402 24.4482 13.0158 24.4482C14.5915 24.4482 15.8687 23.9996 15.8687 23.4458Z" fill="url(#paint6_linear_252_270)"/>
<path d="M22.5938 20.9191C22.5481 20.9191 22.5023 20.9167 22.4561 20.9119L22.3805 20.9041C22.0314 20.8681 21.7172 20.6981 21.4958 20.4256C21.2744 20.1532 21.1723 19.8109 21.2082 19.4615C21.2837 18.7328 21.8121 18.1241 22.5234 17.9474L26.1976 17.0338C26.9238 16.8534 27.4635 16.232 27.5405 15.4876L27.5925 14.9837C27.6938 14.0062 26.9806 13.1286 26.0031 13.0274C25.5293 12.9782 25.0653 13.1167 24.6958 13.417C24.3263 13.7173 24.0958 14.1434 24.0468 14.617L24.0039 15.0329C23.974 15.3226 24.1852 15.5828 24.4751 15.6127C24.6154 15.6277 24.7531 15.5863 24.8626 15.4973C24.9723 15.4082 25.0406 15.282 25.0549 15.1415C25.0866 14.8371 25.3585 14.6159 25.6636 14.6471C25.9682 14.6786 26.1896 14.9511 26.1582 15.2556C26.0651 16.1537 25.2598 16.809 24.361 16.7157C23.9261 16.6709 23.5345 16.459 23.2586 16.1197C22.9828 15.7803 22.8558 15.3538 22.9007 14.9188L22.9438 14.5027C23.0232 13.7347 23.397 13.0434 23.9963 12.5564C24.5959 12.0694 25.3489 11.845 26.1172 11.9243C27.7029 12.0883 28.8595 13.5118 28.6958 15.0975L28.6435 15.6016C28.5186 16.8092 27.6433 17.8173 26.465 18.11L22.7909 19.0233C22.5316 19.0877 22.3388 19.3098 22.3113 19.5754C22.3037 19.6491 22.3362 19.7016 22.3564 19.7263C22.3763 19.7508 22.421 19.7935 22.4945 19.8011L22.5704 19.8089C22.6437 19.8165 22.6964 19.784 22.7209 19.764C22.7456 19.7439 22.7881 19.6994 22.7957 19.6257C22.8271 19.321 23.0999 19.0996 23.4044 19.1311C23.7088 19.1627 23.9302 19.4351 23.8987 19.7397C23.8627 20.0888 23.6928 20.4033 23.4202 20.6246C23.1838 20.817 22.8944 20.9191 22.5938 20.9191Z" fill="url(#paint7_radial_252_270)"/>
<path d="M24.0457 14.617C24.0801 14.2835 24.205 13.9739 24.4045 13.715L23.6163 12.9268C23.239 13.3685 23.0038 13.9127 22.9426 14.5029L22.8995 14.9188C22.8546 15.3538 22.9816 15.7803 23.2575 16.1199C23.5333 16.4592 23.9249 16.6709 24.3599 16.716C25.2589 16.809 26.0642 16.1537 26.157 15.2558C26.1884 14.9511 25.967 14.6786 25.6624 14.6471C25.3573 14.6161 25.0854 14.8371 25.0539 15.1417C25.0394 15.282 24.9711 15.4084 24.8616 15.4973C24.7519 15.5865 24.6142 15.6279 24.4739 15.6129C24.1842 15.583 23.9728 15.3228 24.0027 15.0331L24.0457 14.617Z" fill="url(#paint8_linear_252_270)"/>
<path d="M21.2082 19.4616C21.1723 19.811 21.2744 20.1534 21.4958 20.4257C21.7172 20.6983 22.0314 20.8683 22.3805 20.9043L22.4561 20.9121C22.5023 20.9168 22.5481 20.9192 22.5938 20.9192C22.8946 20.9192 23.1838 20.8171 23.4204 20.6248C23.6928 20.4034 23.8627 20.0892 23.8987 19.7398C23.9304 19.4352 23.7088 19.1628 23.4044 19.1312C23.0999 19.0997 22.8271 19.3214 22.7957 19.6258C22.7881 19.6995 22.7456 19.744 22.7209 19.7641C22.6964 19.7843 22.6437 19.8166 22.5704 19.809L22.4947 19.8012C22.421 19.7936 22.3763 19.7511 22.3564 19.7264C22.3362 19.7017 22.3037 19.6492 22.3115 19.5757C22.3388 19.3099 22.5316 19.088 22.7909 19.0236L23.4386 18.8625L22.5234 17.9473C21.8121 18.1242 21.2837 18.7326 21.2082 19.4616Z" fill="url(#paint9_linear_252_270)"/>
<path d="M13.0152 23.8742C18.8563 23.8742 23.5911 19.1394 23.5911 13.2985V11.3604C23.5911 10.3779 18.8561 9.58105 13.0152 9.58105C7.17449 9.58105 2.43945 10.3779 2.43945 11.3604V13.2983C2.43945 19.1394 7.17427 23.8742 13.0152 23.8742Z" fill="url(#paint10_linear_252_270)"/>
<path d="M23.5911 11.36C23.5911 10.3775 18.8563 9.58105 13.0152 9.58105C7.17427 9.58105 2.43945 10.3775 2.43945 11.36C2.43945 12.3425 7.17427 13.1391 13.0152 13.1391C18.8563 13.1391 23.5911 12.3425 23.5911 11.36Z" fill="url(#paint11_linear_252_270)"/>
<path d="M22.6034 11.3656C22.6034 10.606 18.3111 9.99023 13.0164 9.99023C7.72195 9.99023 3.42969 10.606 3.42969 11.3656C3.42969 12.1252 7.72195 12.741 13.0164 12.741C18.3111 12.741 22.6034 12.1252 22.6034 11.3656Z" fill="url(#paint12_linear_252_270)"/>
<path d="M4.90625 12.0998C6.60472 12.4854 9.60161 12.7412 13.0155 12.7412C16.4295 12.7412 19.4264 12.4852 21.1249 12.0998C19.4264 11.7143 16.4295 11.458 13.0155 11.458C9.60161 11.458 6.60472 11.7143 4.90625 12.0998Z" fill="url(#paint13_linear_252_270)"/>
<path d="M23.5911 13.2739V13.2978C23.5911 13.6055 23.5779 13.9103 23.5519 14.2115C22.0249 14.9429 17.884 15.4668 13.0152 15.4668C8.14656 15.4668 4.00566 14.9429 2.4787 14.2115C2.45268 13.9103 2.43945 13.6055 2.43945 13.2978V13.2739C3.93302 14.0146 8.10385 14.5481 13.0152 14.5481C17.9267 14.5481 22.0975 14.0146 23.5911 13.2739Z" fill="url(#paint14_linear_252_270)"/>
<path d="M23.4592 14.9756C23.4047 15.3165 23.3343 15.6525 23.2478 15.9819C21.5224 16.6439 17.5901 17.1064 13.0155 17.1064C8.44114 17.1064 4.50904 16.6439 2.78346 15.9819C2.69695 15.6525 2.62647 15.3165 2.57227 14.9756C4.16904 15.684 8.24273 16.1881 13.0155 16.1881C17.7885 16.1881 21.8622 15.684 23.4592 14.9756Z" fill="url(#paint15_linear_252_270)"/>
<path d="M13.5768 12.2192C13.5356 12.242 13.4838 12.2294 13.458 12.1904C13.249 11.876 13.0436 11.5596 12.8361 11.2444L12.6709 10.9898L12.5885 10.8623C12.5744 10.84 12.5614 10.8222 12.5467 10.7964L12.5028 10.7196C12.3875 10.5132 12.3274 10.2742 12.3179 10.0322C12.3103 9.78982 12.3615 9.54307 12.4666 9.31734C12.4957 9.2627 12.5213 9.20502 12.5568 9.15341L12.6058 9.07752C12.6071 9.07535 12.6087 9.0734 12.6102 9.07123L12.6655 8.99968C12.7026 8.9485 12.7485 8.90492 12.7915 8.8583C12.8134 8.83553 12.8379 8.81558 12.8613 8.79412L12.8971 8.76267L12.9151 8.74706L12.9298 8.7347L13.3971 8.34743L13.6308 8.1538L13.6892 8.10523L13.7371 8.06143C13.7679 8.03194 13.8004 8.00505 13.8299 7.97448C14.3117 7.49679 14.5175 6.79836 14.4032 6.17756C14.393 6.10058 14.3705 6.02621 14.3522 5.95162C14.3516 5.94902 14.3507 5.94641 14.3499 5.94381C14.3234 5.87117 14.3035 5.79702 14.2685 5.72806C14.2529 5.69402 14.2388 5.65911 14.2228 5.6255C14.2217 5.6229 14.2204 5.62051 14.2189 5.61813L14.1638 5.52077L14.138 5.47436C14.1365 5.47176 14.1348 5.46894 14.133 5.46634L14.1024 5.42297L14.0404 5.33169C14.0387 5.3293 14.037 5.32692 14.035 5.32475L13.9643 5.24018L13.9316 5.19963C13.9296 5.19703 13.9275 5.19465 13.9251 5.19248L13.8878 5.15562L13.8112 5.07777C13.8093 5.0756 13.8071 5.07365 13.8047 5.0717L13.7208 5.00188L13.6814 4.96827C13.679 4.96632 13.6766 4.96437 13.674 4.96263L13.631 4.93314L13.5424 4.87091C13.54 4.86939 13.5376 4.86787 13.5352 4.86657L13.4411 4.8128C13.4248 4.80369 13.4092 4.79328 13.3925 4.78526L13.3414 4.76206C13.2097 4.69462 13.0662 4.65646 12.9252 4.62502C12.9226 4.62459 12.9198 4.62415 12.917 4.62372C12.8455 4.61504 12.7756 4.60008 12.7039 4.60117C12.6676 4.60052 12.6319 4.5964 12.5959 4.59748L12.4881 4.60334C12.4523 4.60312 12.4168 4.60919 12.3816 4.61548C12.3478 4.62112 12.314 4.62502 12.2806 4.63087C12.2778 4.63152 12.275 4.63196 12.2721 4.63283L12.173 4.65841L12.1217 4.67055L12.0484 4.69029L11.7548 4.7677L11.608 4.80629L11.5713 4.81583C11.5609 4.81887 11.557 4.82147 11.5496 4.82407L11.5104 4.83904C11.3027 4.91796 11.1314 5.05327 11.0036 5.22153C10.9401 5.3061 10.8876 5.39825 10.8486 5.4967C10.8276 5.54549 10.8139 5.59688 10.8003 5.64892C10.7959 5.67537 10.7859 5.70139 10.7833 5.7285L10.7781 5.76926L10.7749 5.78986L10.7732 5.80005C10.7727 5.80395 10.7725 5.81198 10.7723 5.81783L10.7541 6.12075L10.7491 6.19664L10.7473 6.21984L10.7456 6.23459C10.7408 6.25475 10.7424 6.27427 10.7402 6.29487C10.7365 6.37597 10.7541 6.46031 10.7885 6.54466C10.8614 6.71033 11.016 6.86536 11.242 6.92434C11.3521 6.95405 11.4759 6.96316 11.6045 6.93865C11.732 6.91307 11.8638 6.85799 11.9835 6.76931C12.1047 6.6817 12.2075 6.55767 12.2869 6.40611C12.2966 6.38659 12.3068 6.36903 12.3166 6.34691L12.3456 6.27449L12.4048 6.12964C12.4374 6.05353 12.4695 5.97764 12.5039 5.90175C12.5204 5.86575 12.559 5.84494 12.5983 5.85036L12.631 5.85491C12.6702 5.86011 12.7019 5.89047 12.708 5.92972C12.721 6.0119 12.7316 6.09386 12.7425 6.17561L12.7609 6.33108L12.7693 6.40871C12.7711 6.43646 12.7711 6.46812 12.7717 6.49826C12.775 6.74242 12.7147 7.00024 12.5872 7.2316C12.4597 7.46231 12.2717 7.66917 12.0373 7.82313C11.9781 7.85999 11.9172 7.89663 11.8536 7.92786L11.7559 7.97079L11.7062 7.99182L11.6552 8.00895C11.5869 8.03172 11.5175 8.05406 11.446 8.06728C11.4102 8.07466 11.3744 8.0829 11.3382 8.08853L11.2287 8.09959C10.6441 8.16117 10.0062 7.90184 9.60289 7.41461C9.40123 7.17219 9.2527 6.87642 9.18353 6.55898C9.16705 6.4794 9.15209 6.39917 9.14602 6.31829L9.13019 6.12921L9.10872 5.8265L9.10786 5.80634L9.10764 5.7788L9.10742 5.72372L9.10829 5.61314C9.10872 5.53941 9.1187 5.46569 9.12499 5.39175C9.14298 5.24473 9.17464 5.09859 9.21866 4.95613C9.30669 4.67164 9.44612 4.40233 9.62848 4.16663C9.81019 3.93028 10.035 3.72775 10.2872 3.57033C10.5396 3.41291 10.8198 3.30211 11.1069 3.24226L11.2148 3.22231L11.2671 3.21342L11.3048 3.20908L11.4555 3.19109L11.7572 3.15552L11.8326 3.14707L11.9313 3.13796L12.1247 3.12213C12.1266 3.12213 12.1288 3.12192 12.1308 3.12192C12.1954 3.12018 12.2604 3.1217 12.3248 3.12192C12.3903 3.12235 12.4558 3.12278 12.5208 3.13037L12.7158 3.14967C12.7804 3.15791 12.8441 3.172 12.9081 3.1835C13.0365 3.20345 13.1599 3.24573 13.2843 3.27912C13.3459 3.2982 13.4055 3.32292 13.466 3.34482C13.5263 3.36737 13.5862 3.39014 13.6438 3.41876L13.8171 3.50116C13.8737 3.53108 13.9283 3.56448 13.9834 3.59657L14.0658 3.64514C14.0927 3.66184 14.1183 3.68113 14.1445 3.69913L14.2972 3.80798C14.2989 3.80907 14.3006 3.81058 14.3024 3.81189C14.3509 3.85113 14.3982 3.89212 14.4457 3.93223L14.5151 3.99208C14.5168 3.99359 14.5186 3.99511 14.5201 3.99663L14.5849 4.06146L14.7148 4.19438C14.7165 4.19612 14.7183 4.19807 14.7198 4.20002L14.8382 4.34313L14.8954 4.41382C14.8969 4.41556 14.8982 4.41751 14.8995 4.41946L14.9511 4.49448L15.0546 4.64757C15.0559 4.64974 15.0574 4.65191 15.0585 4.65429L15.1482 4.81562L15.1912 4.8952C15.1923 4.89715 15.1933 4.8991 15.1942 4.90127L15.2311 4.98388L15.3039 5.15301C15.3048 5.15497 15.3054 5.15692 15.3061 5.15887C15.3273 5.21633 15.3453 5.27488 15.3646 5.33277C15.4063 5.44856 15.4297 5.56999 15.4572 5.68925C15.4577 5.6912 15.4581 5.69315 15.4583 5.6951C15.4772 5.81675 15.498 5.93731 15.5032 6.05982C15.5188 6.30571 15.5065 6.55269 15.4605 6.79229C15.4156 7.03146 15.3488 7.26651 15.2469 7.4853C15.1461 7.7043 15.0246 7.91268 14.8765 8.09981C14.7278 8.28629 14.5611 8.4565 14.3757 8.60222C14.3297 8.63864 14.2803 8.67117 14.2328 8.70543L14.1616 8.75487L14.0975 8.79542L13.8414 8.95826L13.329 9.28351L13.3132 9.2937L13.3017 9.30151L13.2783 9.31756C13.2629 9.3284 13.2459 9.33772 13.2314 9.34965C13.2032 9.37458 13.1705 9.39562 13.1451 9.42402L13.1072 9.46089C13.105 9.46305 13.1028 9.46522 13.1009 9.46761L13.0668 9.50816C13.041 9.53526 13.0226 9.56779 13.0001 9.59814C12.9985 9.60031 12.9968 9.6027 12.9955 9.60486C12.9563 9.67035 12.919 9.73887 12.8945 9.81324C12.8658 9.88762 12.8498 9.96676 12.8389 10.0472C12.8227 10.2079 12.8374 10.3772 12.8988 10.5349L12.922 10.5941C12.9294 10.6136 12.9426 10.639 12.9523 10.6611L13.0165 10.7988L13.1445 11.0739C13.3012 11.4172 13.4602 11.7593 13.6154 12.1035C13.6347 12.146 13.6178 12.1965 13.5768 12.2192Z" fill="url(#paint16_linear_252_270)"/>
<path d="M14.8414 11.1757C14.7738 10.8544 14.7603 10.5159 14.7944 10.178C14.8007 10.093 14.8174 10.0098 14.8299 9.92499C14.8486 9.84195 14.8638 9.75695 14.887 9.67433C14.9102 9.5915 14.9323 9.50759 14.9624 9.42649C14.9767 9.38572 14.9897 9.34388 15.0058 9.30354L15.0554 9.18277C15.1914 8.86098 15.3824 8.55893 15.6136 8.28659C15.67 8.21698 15.7346 8.15497 15.7959 8.08948L15.9688 7.91623L16.0546 7.83123C16.0965 7.79502 16.1385 7.75772 16.1828 7.72325C16.2292 7.69159 16.2749 7.65776 16.3239 7.62936C16.3742 7.60312 16.423 7.57276 16.4761 7.55173C16.6856 7.46023 16.9165 7.41035 17.1518 7.41274C17.2108 7.41144 17.2693 7.41946 17.3285 7.42401C17.3875 7.43095 17.4458 7.44353 17.5048 7.45502C17.5625 7.47128 17.621 7.48711 17.6776 7.50836C17.7334 7.53178 17.7917 7.55195 17.845 7.58187C18.063 7.69441 18.2536 7.86592 18.3869 8.073C18.522 8.27986 18.6007 8.52619 18.6128 8.77121C18.6256 9.01645 18.5727 9.25931 18.4693 9.47137C18.3659 9.68322 18.21 9.86471 18.025 9.99091C17.9801 10.0237 17.9294 10.0486 17.8821 10.0753C17.8331 10.0995 17.7824 10.1197 17.7327 10.1386C17.6499 10.1626 17.5697 10.1809 17.4866 10.2002C17.3207 10.2357 17.1522 10.2672 16.9721 10.2793L16.9148 10.1843C17.0096 10.0308 17.116 9.89637 17.2247 9.76605C17.2791 9.70209 17.3368 9.6379 17.3908 9.57827C17.4068 9.55117 17.4246 9.52905 17.4391 9.50455C17.4519 9.4781 17.4662 9.45511 17.4771 9.43039C17.5213 9.33173 17.5415 9.23524 17.5449 9.14482C17.5482 9.0544 17.5367 8.97048 17.5111 8.89676C17.4857 8.82282 17.4532 8.7595 17.4144 8.69684C17.3749 8.63396 17.3311 8.57476 17.275 8.52012C17.1672 8.40693 16.9751 8.33537 16.7919 8.38069C16.7684 8.38416 16.7476 8.39522 16.7244 8.40086C16.7019 8.40866 16.6813 8.42059 16.6583 8.42926C16.6373 8.44119 16.6167 8.4542 16.5943 8.46613L16.497 8.53725L16.3038 8.67711C16.2478 8.72069 16.1875 8.76059 16.1344 8.80851L16.0512 8.87725L15.9718 8.95097C15.9171 8.99889 15.8694 9.0531 15.8181 9.10514C15.7677 9.15805 15.7218 9.21486 15.6736 9.27059C15.6307 9.32956 15.5817 9.38594 15.5418 9.44817C15.1983 9.93302 14.9943 10.5317 14.9518 11.1685L14.8414 11.1757Z" fill="url(#paint17_linear_252_270)"/>
</g>
<defs>
<linearGradient id="paint0_linear_252_270" x1="10.6711" y1="20.9339" x2="14.8383" y2="29.1105" gradientUnits="userSpaceOnUse">
<stop stop-color="#F2E9DC"/>
<stop offset="0.2282" stop-color="#F0E4D7"/>
<stop offset="0.5158" stop-color="#EAD7C7"/>
<stop offset="0.8338" stop-color="#E0C2AD"/>
<stop offset="1" stop-color="#DAB49D"/>
</linearGradient>
<linearGradient id="paint1_linear_252_270" x1="12.8427" y1="21.208" x2="13.1262" y2="25.6586" gradientUnits="userSpaceOnUse">
<stop stop-color="#F2E9DC"/>
<stop offset="0.2282" stop-color="#F0E4D7"/>
<stop offset="0.5158" stop-color="#EAD7C7"/>
<stop offset="0.8338" stop-color="#E0C2AD"/>
<stop offset="1" stop-color="#DAB49D"/>
</linearGradient>
<linearGradient id="paint2_linear_252_270" x1="12.1352" y1="20.6982" x2="14.5599" y2="29.0877" gradientUnits="userSpaceOnUse">
<stop stop-color="#F2E9DC"/>
<stop offset="0.2282" stop-color="#F0E4D7"/>
<stop offset="0.5158" stop-color="#EAD7C7"/>
<stop offset="0.8338" stop-color="#E0C2AD"/>
<stop offset="1" stop-color="#DAB49D"/>
</linearGradient>
<linearGradient id="paint3_linear_252_270" x1="19.3141" y1="23.6409" x2="1.71245" y2="23.6409" gradientUnits="userSpaceOnUse">
<stop stop-color="#F2E9DC"/>
<stop offset="0.2282" stop-color="#F0E4D7"/>
<stop offset="0.5158" stop-color="#EAD7C7"/>
<stop offset="0.8338" stop-color="#E0C2AD"/>
<stop offset="1" stop-color="#DAB49D"/>
</linearGradient>
<linearGradient id="paint4_linear_252_270" x1="16.0039" y1="25.8627" x2="16.6435" y2="18.901" gradientUnits="userSpaceOnUse">
<stop stop-color="#DAB49D" stop-opacity="0"/>
<stop offset="0.4385" stop-color="#CE9E7A" stop-opacity="0.439216"/>
<stop offset="1" stop-color="#C08552"/>
</linearGradient>
<linearGradient id="paint5_linear_252_270" x1="15.057" y1="26.2344" x2="12.7453" y2="20.6071" gradientUnits="userSpaceOnUse">
<stop stop-color="#DAB49D" stop-opacity="0"/>
<stop offset="0.4385" stop-color="#CE9E7A" stop-opacity="0.439216"/>
<stop offset="1" stop-color="#C08552"/>
</linearGradient>
<linearGradient id="paint6_linear_252_270" x1="12.4746" y1="22.1342" x2="13.4072" y2="24.394" gradientUnits="userSpaceOnUse">
<stop stop-color="#F2E9DC"/>
<stop offset="0.2282" stop-color="#F0E4D7"/>
<stop offset="0.5158" stop-color="#EAD7C7"/>
<stop offset="0.8338" stop-color="#E0C2AD"/>
<stop offset="1" stop-color="#DAB49D"/>
</linearGradient>
<radialGradient id="paint7_radial_252_270" cx="0" cy="0" r="1" gradientUnits="userSpaceOnUse" gradientTransform="translate(22.4891 14.2007) scale(6.25837)">
<stop stop-color="#F2E9DC"/>
<stop offset="0.3418" stop-color="#F1E7D9"/>
<stop offset="0.5588" stop-color="#EEE0D1"/>
<stop offset="0.7411" stop-color="#E8D3C2"/>
<stop offset="0.9032" stop-color="#E0C2AD"/>
<stop offset="1" stop-color="#DAB49D"/>
</radialGradient>
<linearGradient id="paint8_linear_252_270" x1="24.7693" y1="15.3783" x2="22.3654" y2="13.9406" gradientUnits="userSpaceOnUse">
<stop stop-color="#DAB49D" stop-opacity="0"/>
<stop offset="0.4385" stop-color="#CE9E7A" stop-opacity="0.439216"/>
<stop offset="1" stop-color="#C08552"/>
</linearGradient>
<linearGradient id="paint9_linear_252_270" x1="22.8871" y1="19.7581" x2="21.0431" y2="18.6553" gradientUnits="userSpaceOnUse">
<stop stop-color="#DAB49D" stop-opacity="0"/>
<stop offset="0.4385" stop-color="#CE9E7A" stop-opacity="0.439216"/>
<stop offset="1" stop-color="#C08552"/>
</linearGradient>
<linearGradient id="paint10_linear_252_270" x1="7.25952" y1="11.4799" x2="20.7036" y2="19.9915" gradientUnits="userSpaceOnUse">
<stop stop-color="#F2E9DC"/>
<stop offset="0.2282" stop-color="#F0E4D7"/>
<stop offset="0.5158" stop-color="#EAD7C7"/>
<stop offset="0.8338" stop-color="#E0C2AD"/>
<stop offset="1" stop-color="#DAB49D"/>
</linearGradient>
<linearGradient id="paint11_linear_252_270" x1="7.39452" y1="7.80156" x2="19.1242" y2="15.2277" gradientUnits="userSpaceOnUse">
<stop stop-color="#F2E9DC"/>
<stop offset="0.2282" stop-color="#F0E4D7"/>
<stop offset="0.5158" stop-color="#EAD7C7"/>
<stop offset="0.8338" stop-color="#E0C2AD"/>
<stop offset="1" stop-color="#DAB49D"/>
</linearGradient>
<linearGradient id="paint12_linear_252_270" x1="13.0165" y1="18.0586" x2="13.0165" y2="6.30265" gradientUnits="userSpaceOnUse">
<stop stop-color="#DAB49D" stop-opacity="0"/>
<stop offset="0.4385" stop-color="#CE9E7A" stop-opacity="0.439216"/>
<stop offset="1" stop-color="#C08552"/>
</linearGradient>
<linearGradient id="paint13_linear_252_270" x1="13.0156" y1="15.222" x2="13.0156" y2="9.73779" gradientUnits="userSpaceOnUse">
<stop stop-color="#C08552"/>
<stop offset="1" stop-color="#895738"/>
</linearGradient>
<linearGradient id="paint14_linear_252_270" x1="7.27171" y1="10.0939" x2="19.2401" y2="17.6712" gradientUnits="userSpaceOnUse">
<stop stop-color="#FFB211"/>
<stop offset="0.1645" stop-color="#FFAC14"/>
<stop offset="0.3888" stop-color="#FF9A1B"/>
<stop offset="0.6475" stop-color="#FF7E28"/>
<stop offset="0.9301" stop-color="#FF5639"/>
<stop offset="1" stop-color="#FF4B3E"/>
</linearGradient>
<linearGradient id="paint15_linear_252_270" x1="7.33922" y1="11.818" x2="19.0907" y2="19.258" gradientUnits="userSpaceOnUse">
<stop stop-color="#FFB211"/>
<stop offset="0.1645" stop-color="#FFAC14"/>
<stop offset="0.3888" stop-color="#FF9A1B"/>
<stop offset="0.6475" stop-color="#FF7E28"/>
<stop offset="0.9301" stop-color="#FF5639"/>
<stop offset="1" stop-color="#FF4B3E"/>
</linearGradient>
<linearGradient id="paint16_linear_252_270" x1="12.626" y1="9.62996" x2="11.5099" y2="-3.14276" gradientUnits="userSpaceOnUse">
<stop stop-color="white" stop-opacity="0.501961"/>
<stop offset="0.1617" stop-color="#F4EAE1" stop-opacity="0.580392"/>
<stop offset="0.741" stop-color="#CFA27B" stop-opacity="0.870588"/>
<stop offset="1" stop-color="#C08552"/>
</linearGradient>
<linearGradient id="paint17_linear_252_270" x1="16.6667" y1="9.91115" x2="17.3029" y2="3.77063" gradientUnits="userSpaceOnUse">
<stop stop-color="white" stop-opacity="0.501961"/>
<stop offset="0.1617" stop-color="#F4EAE1" stop-opacity="0.580392"/>
<stop offset="0.741" stop-color="#CFA27B" stop-opacity="0.870588"/>
<stop offset="1" stop-color="#C08552"/>
</linearGradient>
<clipPath id="clip0_252_270">
<rect width="28.4211" height="28.4211" fill="white" transform="translate(0.289062 0.789551)"/>
</clipPath>
</defs>
</svg>
