<svg width="28" height="29" viewBox="0 0 28 29" fill="none" xmlns="http://www.w3.org/2000/svg">
<path d="M5.66406 24.8934C5.66406 22.6826 6.5423 20.5623 8.10558 18.999C9.66887 17.4358 11.7891 16.5575 13.9999 16.5575C16.2108 16.5575 18.331 17.4358 19.8943 18.999C21.4576 20.5623 22.3358 22.6826 22.3358 24.8934H20.2518C20.2518 23.2353 19.5932 21.6451 18.4207 20.4726C17.2482 19.3002 15.6581 18.6415 13.9999 18.6415C12.3418 18.6415 10.7516 19.3002 9.57917 20.4726C8.40671 21.6451 7.74803 23.2353 7.74803 24.8934H5.66406ZM13.9999 15.5155C10.5458 15.5155 7.74803 12.7178 7.74803 9.26363C7.74803 5.80945 10.5458 3.01172 13.9999 3.01172C17.4541 3.01172 20.2518 5.80945 20.2518 9.26363C20.2518 12.7178 17.4541 15.5155 13.9999 15.5155ZM13.9999 13.4316C16.3027 13.4316 18.1679 11.5664 18.1679 9.26363C18.1679 6.96084 16.3027 5.09569 13.9999 5.09569C11.6972 5.09569 9.832 6.96084 9.832 9.26363C9.832 11.5664 11.6972 13.4316 13.9999 13.4316Z" fill="#0E121B"/>
</svg>
